<svg xmlns="http://www.w3.org/2000/svg" width="128" height="35" fill="none"><path fill="#000" d="M1.5 12.8a17.9 17.9 0 0 1 3.7 0c.4 0 .8.2 1.2.4l.9 1c.2.3.3.8.3 1.4 0 .6-.1 1.1-.3 1.6-.2.4-.5.7-.9 1l-1.2.5a6 6 0 0 1-1.4.2H2.7v3.7H1.5v-9.8Zm2.4.8a16.9 16.9 0 0 0-1.2.1v4l.2.1h1.8l.8-.4c.3-.1.5-.4.6-.6.2-.3.3-.7.3-1.2l-.2-.9-.6-.6-.8-.4h-1Zm9.2 6.2H9.5l-1 2.8H7.3l3.8-10h.5l3.7 10h-1.2l-1-2.8Zm-3.3-1h3l-1.2-3-.3-1.4-.4 1.5-1 3Zm7.6-.9v-1h1.5l.7-.2.6-.4c.1-.1.3-.3.3-.5l.2-.6c0-.3 0-.5-.2-.7 0-.2-.2-.4-.4-.5l-.6-.3h-.8a6.4 6.4 0 0 0-2.1.3l-.3-1a7.3 7.3 0 0 1 3.7-.3c.4 0 .7.2 1 .4.3.2.5.4.6.7.2.3.3.7.3 1.2s-.1.9-.4 1.3c-.4.5-.8.8-1.4 1 .6 0 1.2.3 1.5.7.4.4.6 1 .6 1.7a2.8 2.8 0 0 1-1.1 2.3l-1.2.6-1.4.1a8.6 8.6 0 0 1-2.5-.3l.3-1.1 1 .3h2.2l.7-.4.6-.6.2-.9c0-.6-.2-1-.6-1.3l-1.6-.5h-1.4Zm6.8-5a17.9 17.9 0 0 1 3.7 0l1.2.3.9 1c.2.3.3.8.3 1.4 0 .6-.1 1.1-.3 1.6-.2.4-.5.7-.9 1l-1.2.5a6 6 0 0 1-1.4.2H25.3v3.7h-1.1v-9.8Zm2.4.7a16.9 16.9 0 0 0-1.3.1v4l.3.1h1.8l.8-.4c.3-.1.5-.4.6-.6.2-.3.3-.7.3-1.2 0-.3-.1-.7-.3-.9 0-.3-.3-.5-.5-.6l-.8-.4h-1Zm9.2 6.2h-3.6l-1 2.8H30l3.7-10h.6l3.7 10h-1.2l-1-2.8Zm-3.3-1h3l-1.2-3-.3-1.4-.4 1.5-1 3Zm6.8-6h5.3v1h-4.1v3a11 11 0 0 1 1.2-.2l1.4.1 1.1.5c.3.2.6.5.8.9.2.3.3.8.3 1.4 0 .5-.1 1-.3 1.4a2.9 2.9 0 0 1-2 1.6 5 5 0 0 1-1.8.1 7.6 7.6 0 0 1-1.9-.1v-9.8Zm2.5 8.9c.3 0 .6 0 .9-.2.3 0 .5-.2.7-.3l.5-.7.2-.8c0-.5-.1-.8-.3-1 0-.4-.3-.6-.5-.7a2 2 0 0 0-.8-.3 4.8 4.8 0 0 0-1.2 0h-.8v3.9h.2a48.8 48.8 0 0 0 .8 0h.3Zm4.8-4a6 6 0 0 1 1-3.8c.7-.9 1.7-1.3 3-1.3a4 4 0 0 1 1.8.3c.5.3.9.6 1.2 1 .4.5.6 1 .8 1.7l.2 2a6 6 0 0 1-1 3.8c-.7.9-1.7 1.3-3 1.3a4 4 0 0 1-1.8-.3c-.5-.3-.9-.6-1.2-1-.4-.5-.6-1-.8-1.7l-.2-2Zm1.2 0c0 .5 0 1 .2 1.5 0 .5.3.9.5 1.3l.8.9c.4.2.8.3 1.3.3.9 0 1.5-.3 2-1s.8-1.7.8-3c0-.6 0-1-.2-1.6l-.5-1.3c-.2-.3-.5-.6-.9-.8-.3-.3-.7-.4-1.2-.4-.9 0-1.5.3-2 1s-.8 1.7-.8 3Zm14.4-4h-3v8.9H58v-8.8h-3v-1h7.2v1Zm5.2 6.1h-3.6l-1 2.8h-1.2l3.8-10h.5l3.7 10h-1.2l-1-2.8Zm-3.2-1H67l-1-3-.4-1.4-.4 1.5-1 3Zm12.6-.7H72v4.4h-1.2v-9.8h1.2V17h4.7v-4.3h1.1v9.9h-1.1V18Zm3.1-.5a6 6 0 0 1 1-3.7c.7-.9 1.7-1.3 3-1.3a4 4 0 0 1 1.8.3c.5.3 1 .6 1.2 1 .4.5.6 1 .8 1.7l.2 2a6 6 0 0 1-1 3.8c-.7.9-1.7 1.3-3 1.3a4 4 0 0 1-1.8-.3c-.5-.3-.9-.6-1.2-1-.3-.5-.6-1-.7-1.7-.2-.6-.3-1.3-.3-2Zm1.2 0 .2 1.6.5 1.3.9.9c.3.2.7.3 1.2.3.9 0 1.6-.3 2-1 .5-.7.8-1.7.8-3 0-.6 0-1-.2-1.6 0-.5-.2-.9-.5-1.3l-.8-.8c-.4-.3-.8-.4-1.3-.4-.9 0-1.5.3-2 1s-.8 1.7-.8 3ZM114.6 0h-.1L101 1.4v24.7l13.5 8 13.4-8V1.4L114.6 0ZM126 12.1l-11.5-6.8v-.1h-.1l-.1-.1v.1l-11.4 6.9v-9l11.5-1.2L126 3.1v9Zm-11.6-5.3 11.5 6.7-4.5 2.6-7.1-4.2v1.4l5.9 3.5-.9.5-5-3v1.4l3.8 2.3-.8.5-3-1.8v1.4l1.9 1.1-1.8 1.1-11.4-6.7 11.4-6.8Zm-11.5 8.3 11.4 6.8v1l-7.9-4.7v1.4l8 4.8v1.1l-8-4.7v1.4l8 4.8 8.1-4.9v-5.2l3.4-2v10l-11.5 6.9-11.5-6.8v-9.9Z"/></svg>